<svg xmlns="http://www.w3.org/2000/svg" viewBox="0 0 1440 900" style="background-color: #f0f9ff;">
  <defs>
    <linearGradient id="grad1" x1="0%" y1="0%" x2="100%" y2="100%">
      <stop offset="0%" style="stop-color:#e6f4f1;stop-opacity:0.8" />
      <stop offset="100%" style="stop-color:#b8e1ee;stop-opacity:0.4" />
    </linearGradient>
    
    <pattern id="medPattern" width="120" height="120" patternUnits="userSpaceOnUse">
      <!-- DNA Helix Abstract -->
      <path d="M60 20Q70 40 50 60T60 100" stroke="#7ac3d1" stroke-width="2" fill="none" opacity="0.3"/>
      <path d="M60 20Q50 40 70 60T60 100" stroke="#7ac3d1" stroke-width="2" fill="none" opacity="0.3"/>
      
      <!-- Medical Cross Symbols -->
      <g transform="translate(90,30)" opacity="0.4">
        <rect x="-4" y="-12" width="8" height="24" fill="#9dd6e4"/>
        <rect x="-12" y="-4" width="24" height="8" fill="#9dd6e4"/>
      </g>
      
      <!-- Organic Circles -->
      <circle cx="30" cy="90" r="8" fill="#c2e7f5" opacity="0.5"/>
      <circle cx="100" cy="100" r="6" fill="#a3d4e6" opacity="0.4"/>
    </pattern>
    
    <clipPath id="softEdges">
      <rect width="1440" height="900" rx="0" ry="0"/>
    </clipPath>
  </defs>

  <!-- Background Gradient -->
  <rect width="100%" height="100%" fill="url(#grad1)"/>
  
  <!-- Pattern Overlay -->
  <g clip-path="url(#softEdges)" opacity="0.6">
    <rect width="100%" height="100%" fill="url(#medPattern)"/>
  </g>
  
  <!-- Floating Waves -->
  <path d="M0 450q120-90 240-60t240 90 240-60 240 90 240-60" 
        fill="none" 
        stroke="#ffffff" 
        stroke-width="40" 
        opacity="0.3"
        stroke-linecap="round"/>
  
  <!-- Molecular Connection Dots -->
  <g opacity="0.4">
    <circle cx="200" cy="300" r="6" fill="#8ecfdc"/>
    <circle cx="1200" cy="700" r="8" fill="#7ac3d1"/>
    <circle cx="500" cy="800" r="5" fill="#9dd6e4"/>
    <path d="M200 300l100 50 200-100" stroke="#8ecfdc" stroke-width="3" fill="none"/>
  </g>
</svg>
